<mxfile host="app.diagrams.net" modified="2024-04-16T11:00:55.248Z" agent="Mozilla/5.0 (Windows NT 10.0; Win64; x64) AppleWebKit/537.36 (KHTML, like Gecko) Chrome/123.0.0.0 Safari/537.36 Edg/123.0.0.0" version="24.2.3" etag="SosQwfqqrWfovNU9vXXj" type="github">
  <diagram name="第 1 页" id="3eQm39yhv7PsVg65_yTD">
    <mxGraphModel>
      <root>
        <mxCell id="0" />
        <mxCell id="1" parent="0" />
      </root>
    </mxGraphModel>
  </diagram>
</mxfile>
